<svg width="134" height="26" viewBox="0 0 134 26" fill="none" xmlns="http://www.w3.org/2000/svg">
<path d="M3.69531 21L0.429688 9H3.79688L5.65625 17.0625H5.76563L7.70313 9H11.0078L12.9766 17.0156H13.0781L14.9062 9H18.2656L15.0078 21H11.4844L9.42188 13.4531H9.27344L7.21094 21H3.69531ZM25.1621 21.2344C23.9486 21.2344 22.8991 20.9766 22.0137 20.4609C21.1335 19.9401 20.4538 19.2161 19.9746 18.2891C19.4954 17.3568 19.2559 16.276 19.2559 15.0469C19.2559 13.8073 19.4954 12.724 19.9746 11.7969C20.4538 10.8646 21.1335 10.1406 22.0137 9.625C22.8991 9.10417 23.9486 8.84375 25.1621 8.84375C26.3757 8.84375 27.4225 9.10417 28.3027 9.625C29.1882 10.1406 29.8704 10.8646 30.3496 11.7969C30.8288 12.724 31.0684 13.8073 31.0684 15.0469C31.0684 16.276 30.8288 17.3568 30.3496 18.2891C29.8704 19.2161 29.1882 19.9401 28.3027 20.4609C27.4225 20.9766 26.3757 21.2344 25.1621 21.2344ZM25.1777 18.6562C25.7298 18.6562 26.1908 18.5 26.5605 18.1875C26.9303 17.8698 27.209 17.4375 27.3965 16.8906C27.5892 16.3437 27.6855 15.7214 27.6855 15.0234C27.6855 14.3255 27.5892 13.7031 27.3965 13.1562C27.209 12.6094 26.9303 12.1771 26.5605 11.8594C26.1908 11.5417 25.7298 11.3828 25.1777 11.3828C24.6204 11.3828 24.1517 11.5417 23.7715 11.8594C23.3965 12.1771 23.1126 12.6094 22.9199 13.1562C22.7324 13.7031 22.6387 14.3255 22.6387 15.0234C22.6387 15.7214 22.7324 16.3437 22.9199 16.8906C23.1126 17.4375 23.3965 17.8698 23.7715 18.1875C24.1517 18.5 24.6204 18.6562 25.1777 18.6562ZM33.2324 21V9H36.459V11.0937H36.584C36.8027 10.349 37.1699 9.78646 37.6855 9.40625C38.2012 9.02083 38.7949 8.82812 39.4668 8.82812C39.6335 8.82812 39.8132 8.83854 40.0059 8.85937C40.1986 8.88021 40.3678 8.90885 40.5137 8.94531V11.8984C40.3574 11.8516 40.1413 11.8099 39.8652 11.7734C39.5892 11.737 39.3366 11.7188 39.1074 11.7188C38.6178 11.7188 38.1803 11.8255 37.7949 12.0391C37.4147 12.2474 37.1126 12.5391 36.8887 12.9141C36.6699 13.2891 36.5605 13.7214 36.5605 14.2109V21H33.2324ZM45.25 17.5469L45.2578 13.5547H45.7422L49.5859 9H53.4062L48.2422 15.0313H47.4531L45.25 17.5469ZM42.2344 21V5H45.5625V21H42.2344ZM49.7344 21L46.2031 15.7734L48.4219 13.4219L53.6328 21H49.7344ZM59.9668 21.2344C58.7533 21.2344 57.7038 20.9766 56.8184 20.4609C55.9382 19.9401 55.2585 19.2161 54.7793 18.2891C54.3001 17.3568 54.0605 16.276 54.0605 15.0469C54.0605 13.8073 54.3001 12.724 54.7793 11.7969C55.2585 10.8646 55.9382 10.1406 56.8184 9.625C57.7038 9.10417 58.7533 8.84375 59.9668 8.84375C61.1803 8.84375 62.2272 9.10417 63.1074 9.625C63.9928 10.1406 64.6751 10.8646 65.1543 11.7969C65.6335 12.724 65.873 13.8073 65.873 15.0469C65.873 16.276 65.6335 17.3568 65.1543 18.2891C64.6751 19.2161 63.9928 19.9401 63.1074 20.4609C62.2272 20.9766 61.1803 21.2344 59.9668 21.2344ZM59.9824 18.6562C60.5345 18.6562 60.9954 18.5 61.3652 18.1875C61.735 17.8698 62.0137 17.4375 62.2012 16.8906C62.3939 16.3437 62.4902 15.7214 62.4902 15.0234C62.4902 14.3255 62.3939 13.7031 62.2012 13.1562C62.0137 12.6094 61.735 12.1771 61.3652 11.8594C60.9954 11.5417 60.5345 11.3828 59.9824 11.3828C59.4251 11.3828 58.9564 11.5417 58.5762 11.8594C58.2012 12.1771 57.9173 12.6094 57.7246 13.1562C57.5371 13.7031 57.4434 14.3255 57.4434 15.0234C57.4434 15.7214 57.5371 16.3437 57.7246 16.8906C57.9173 17.4375 58.2012 17.8698 58.5762 18.1875C58.9564 18.5 59.4251 18.6562 59.9824 18.6562ZM75.7324 15.8906V9H79.0605V21H75.8652V18.8203H75.7402C75.4694 19.5234 75.0189 20.0885 74.3887 20.5156C73.7637 20.9427 73.0007 21.1563 72.0996 21.1563C71.2975 21.1563 70.5918 20.974 69.9824 20.6094C69.373 20.2448 68.8965 19.7266 68.5527 19.0547C68.2142 18.3828 68.0423 17.5781 68.0371 16.6406V9H71.3652V16.0469C71.3704 16.7552 71.5605 17.3151 71.9355 17.7266C72.3105 18.138 72.8132 18.3437 73.4434 18.3437C73.8444 18.3437 74.2194 18.2526 74.5684 18.0703C74.9173 17.8828 75.1986 17.6068 75.4121 17.2422C75.6309 16.8776 75.7376 16.4271 75.7324 15.8906ZM88.1055 9V11.5H80.8789V9H88.1055ZM82.5195 6.125H85.8477V17.3125C85.8477 17.6198 85.8945 17.8594 85.9883 18.0312C86.082 18.1979 86.2122 18.3151 86.3789 18.3828C86.5508 18.4505 86.7487 18.4844 86.9727 18.4844C87.1289 18.4844 87.2852 18.4714 87.4414 18.4453C87.5977 18.4141 87.7174 18.3906 87.8008 18.375L88.3242 20.8516C88.1576 20.9036 87.9232 20.9635 87.6211 21.0313C87.319 21.1042 86.9518 21.1484 86.5195 21.1641C85.7174 21.1953 85.0143 21.0885 84.4102 20.8437C83.8112 20.599 83.3451 20.2187 83.0117 19.7031C82.6784 19.1875 82.5143 18.5365 82.5195 17.75V6.125ZM93.6953 21.2266C92.9297 21.2266 92.2474 21.0938 91.6484 20.8281C91.0495 20.5573 90.5755 20.1589 90.2266 19.6328C89.8828 19.1016 89.7109 18.4401 89.7109 17.6484C89.7109 16.9818 89.8333 16.4219 90.0781 15.9687C90.3229 15.5156 90.6563 15.151 91.0781 14.875C91.5 14.599 91.9792 14.3906 92.5156 14.25C93.0573 14.1094 93.625 14.0104 94.2188 13.9531C94.9167 13.8802 95.4792 13.8125 95.9062 13.75C96.3333 13.6823 96.6432 13.5833 96.8359 13.4531C97.0286 13.3229 97.125 13.1302 97.125 12.875V12.8281C97.125 12.3333 96.9688 11.9505 96.6562 11.6797C96.349 11.4089 95.9115 11.2734 95.3437 11.2734C94.7448 11.2734 94.2682 11.4062 93.9141 11.6719C93.5599 11.9323 93.3255 12.2604 93.2109 12.6562L90.1328 12.4062C90.2891 11.6771 90.5964 11.0469 91.0547 10.5156C91.513 9.97917 92.1042 9.56771 92.8281 9.28125C93.5573 8.98958 94.401 8.84375 95.3594 8.84375C96.026 8.84375 96.6641 8.92187 97.2734 9.07812C97.888 9.23437 98.4323 9.47656 98.9063 9.80469C99.3854 10.1328 99.763 10.5547 100.039 11.0703C100.315 11.5807 100.453 12.1927 100.453 12.9062V21H97.2969V19.3359H97.2031C97.0104 19.7109 96.7526 20.0417 96.4297 20.3281C96.1068 20.6094 95.7187 20.8307 95.2656 20.9922C94.8125 21.1484 94.2891 21.2266 93.6953 21.2266ZM94.6484 18.9297C95.138 18.9297 95.5703 18.8333 95.9453 18.6406C96.3203 18.4427 96.6146 18.1771 96.8281 17.8438C97.0417 17.5104 97.1484 17.1328 97.1484 16.7109V15.4375C97.0443 15.5052 96.901 15.5677 96.7188 15.625C96.5417 15.6771 96.3411 15.7266 96.1172 15.7734C95.8932 15.8151 95.6693 15.8542 95.4453 15.8906C95.2214 15.9219 95.0182 15.9505 94.8359 15.9766C94.4453 16.0339 94.1042 16.125 93.8125 16.25C93.5208 16.375 93.2943 16.5443 93.1328 16.7578C92.9714 16.9661 92.8906 17.2266 92.8906 17.5391C92.8906 17.9922 93.0547 18.3385 93.3828 18.5781C93.7161 18.8125 94.138 18.9297 94.6484 18.9297ZM103.035 9H106.363V21.5938C106.363 22.5208 106.181 23.2708 105.816 23.8438C105.452 24.4167 104.928 24.8359 104.246 25.1016C103.569 25.3672 102.759 25.5 101.816 25.5C101.702 25.5 101.592 25.4974 101.488 25.4922C101.379 25.4922 101.264 25.4896 101.145 25.4844V22.8828C101.233 22.888 101.311 22.8906 101.379 22.8906C101.441 22.8958 101.509 22.8984 101.582 22.8984C102.118 22.8984 102.493 22.7839 102.707 22.5547C102.926 22.3307 103.035 21.9922 103.035 21.5391V9ZM104.691 7.45312C104.202 7.45312 103.78 7.28906 103.426 6.96094C103.072 6.6276 102.895 6.22917 102.895 5.76562C102.895 5.30729 103.072 4.91406 103.426 4.58594C103.78 4.2526 104.202 4.08594 104.691 4.08594C105.191 4.08594 105.616 4.2526 105.965 4.58594C106.319 4.91406 106.496 5.30729 106.496 5.76562C106.496 6.22917 106.319 6.6276 105.965 6.96094C105.616 7.28906 105.191 7.45312 104.691 7.45312ZM112.451 21.2266C111.686 21.2266 111.003 21.0938 110.404 20.8281C109.805 20.5573 109.331 20.1589 108.982 19.6328C108.639 19.1016 108.467 18.4401 108.467 17.6484C108.467 16.9818 108.589 16.4219 108.834 15.9687C109.079 15.5156 109.412 15.151 109.834 14.875C110.256 14.599 110.735 14.3906 111.271 14.25C111.813 14.1094 112.381 14.0104 112.975 13.9531C113.673 13.8802 114.235 13.8125 114.662 13.75C115.089 13.6823 115.399 13.5833 115.592 13.4531C115.785 13.3229 115.881 13.1302 115.881 12.875V12.8281C115.881 12.3333 115.725 11.9505 115.412 11.6797C115.105 11.4089 114.667 11.2734 114.1 11.2734C113.501 11.2734 113.024 11.4062 112.67 11.6719C112.316 11.9323 112.081 12.2604 111.967 12.6562L108.889 12.4062C109.045 11.6771 109.352 11.0469 109.811 10.5156C110.269 9.97917 110.86 9.56771 111.584 9.28125C112.313 8.98958 113.157 8.84375 114.115 8.84375C114.782 8.84375 115.42 8.92187 116.029 9.07812C116.644 9.23437 117.188 9.47656 117.662 9.80469C118.141 10.1328 118.519 10.5547 118.795 11.0703C119.071 11.5807 119.209 12.1927 119.209 12.9062V21H116.053V19.3359H115.959C115.766 19.7109 115.508 20.0417 115.186 20.3281C114.863 20.6094 114.475 20.8307 114.021 20.9922C113.568 21.1484 113.045 21.2266 112.451 21.2266ZM113.404 18.9297C113.894 18.9297 114.326 18.8333 114.701 18.6406C115.076 18.4427 115.37 18.1771 115.584 17.8438C115.798 17.5104 115.904 17.1328 115.904 16.7109V15.4375C115.8 15.5052 115.657 15.5677 115.475 15.625C115.298 15.6771 115.097 15.7266 114.873 15.7734C114.649 15.8151 114.425 15.8542 114.201 15.8906C113.977 15.9219 113.774 15.9505 113.592 15.9766C113.201 16.0339 112.86 16.125 112.568 16.25C112.277 16.375 112.05 16.5443 111.889 16.7578C111.727 16.9661 111.646 17.2266 111.646 17.5391C111.646 17.9922 111.811 18.3385 112.139 18.5781C112.472 18.8125 112.894 18.9297 113.404 18.9297Z" fill="#89C5CC"/>
</svg>
